#N canvas 128 22 1068 957 24;
#X obj 481 641 pddp/pddplink https://github.com/risd-cs/codedrop-pd-dmi
;
#X text 165 34 We can't skip this.;
#X obj 136 204 prepend set;
#X msg 136 163 \$1 500;
#X floatatom 136 123 5 0 0 0 - - -;
#X msg 136 252 22 500;
#X obj 43 231 line;
#X floatatom 43 270 5 0 0 0 - - -;
#X obj 149 436 pack f 500;
#X floatatom 256 399 5 0 0 0 - - -;
#X floatatom 149 399 5 0 0 0 - - -;
#X obj 149 473 prepend set;
#X msg 149 521 238 107;
#X obj 53 480 line;
#X floatatom 53 519 5 0 0 0 - - -;
#X text 336 507 the "f" specifies a float number without stating a
default \; this is overwritten by the incoming number;
#X text 286 158 a message with a "\$1" in it means that this is variable
that can be replaced;
#X text 286 219 we'll use this alot - especially with the line~ or
line objects \, which allows us to smooth data over a time period specified
in milliseconds;
#X text 335 418 another common way to format messages with variables
is to use the pack object \, this makes it easy to specify a default
and overwrite it in both message positions;
#X connect 2 0 5 0;
#X connect 3 0 2 0;
#X connect 3 0 6 0;
#X connect 4 0 3 0;
#X connect 6 0 7 0;
#X connect 8 0 11 0;
#X connect 8 0 13 0;
#X connect 9 0 8 1;
#X connect 10 0 8 0;
#X connect 11 0 12 0;
#X connect 13 0 14 0;
