#N canvas 165 22 1256 932 24;
#X obj 94 148 metro;
#X text 164 146 <- here is an object;
#X msg 94 187 hello;
#X text 164 186 <- here is a message;
#X floatatom 94 227 5 0 0 0 - - -;
#X text 167 226 <- here is a number;
#X text 91 264 My comment;
#X text 212 263 <- here is a comment;
#X text 506 178 <----- try instantiating each of these items in Edit
mode using the key commands.;
#X text 390 501 !!!!!!!!!!!!!! VERY IMPORTANT. Most objects have a
help file associated with them. In Edit mode \, you can easily access
the help patch by right clicking (or CTRL-click on Mac). Try this on
the items above.;
#X text 239 676 Also try right clicking in the white space and selecting
Help. You'll see a helpful list of the basic objects for Pd.;
#X text 161 357 You'll notice that these items have little rectangles
in some of the corners. These are "inlets" and "outlets \, " and represent
the points at which connections can be made between items.;
#X obj 113 826 pddp/pddplink https://github.com/risd-cs/codedrop-pd-dmi
;
#X text 213 25 The primary text entities are under the "Put" menu.
We'll work with four of them for now (disregard symbol).;
