#N canvas 132 22 1086 888 24;
#X obj 292 468 dac~;
#X msg 53 101 \; pd dsp \$1;
#X obj 53 48 tgl 30 0 empty empty empty 17 7 0 10 -262144 -1 -1 0 1
;
#X text 90 49 <- turn on sound;
#X obj 510 291 line~;
#X obj 292 379 *~;
#X obj 510 249 pack f 20;
#X floatatom 510 216 5 0 0 0 - - -;
#X obj 292 140 line~;
#X floatatom 292 3 5 0 0 0 - - -;
#X obj 295 -48 hsl 200 30 0 1 0 0 empty empty frequency -2 -10 0 12
-262144 -1 -1 0 1;
#X obj 292 52 * 1000;
#X floatatom 399 52 5 0 0 1 glide - -;
#X obj 292 98 pack f 200;
#X floatatom 606 217 5 0 0 1 ramp - -;
#X obj 49 598 pddp/pddplink https://github.com/risd-cs/codedrop-pd-dmi
;
#X obj 513 179 hsl 200 30 0 1 0 0 empty empty gain -2 -10 0 12 -262144
-1 -1 0 1;
#X obj 292 180 phasor~ 440;
#X text 64 -193 GETTING OTHER WAVEFORM TYPES - A stronger phasor~.
A phasor~ moves between 0 and 1 By multiplying by 2 and substracting
by 1 we scale the phasor~ to move between -1 and 1;
#X obj 292 227 *~ 2;
#X obj 292 270 -~ 1;
#X connect 2 0 1 0;
#X connect 4 0 5 1;
#X connect 5 0 0 0;
#X connect 5 0 0 1;
#X connect 6 0 4 0;
#X connect 7 0 6 0;
#X connect 8 0 17 0;
#X connect 9 0 11 0;
#X connect 10 0 9 0;
#X connect 11 0 13 0;
#X connect 12 0 13 1;
#X connect 13 0 8 0;
#X connect 14 0 6 1;
#X connect 16 0 7 0;
#X connect 17 0 19 0;
#X connect 19 0 20 0;
#X connect 20 0 5 0;
