#N canvas 30 31 1468 872 24;
#N canvas 0 22 450 300 (subpatch) 0;
#X array array_add1 100 float 0;
#X coords 0 1 99 -1 200 140 1;
#X restore 757 518 graph;
#X obj 756 435 metro 100;
#X obj 756 398 tgl 30 0 empty empty empty 17 7 0 10 -262144 -1 -1 0
1;
#X obj 268 111 osc~;
#X msg 51 346 \; pd dsp \$1;
#X obj 51 298 tgl 30 0 empty empty empty 17 7 0 10 -262144 -1 -1 0
1;
#X obj 266 433 dac~;
#X obj 268 51 line~;
#X floatatom 268 -104 5 0 0 0 - - -;
#X obj 268 9 pack f 200;
#X text 796 399 <- graph;
#X obj 426 51 line~;
#X floatatom 426 -23 5 0 0 0 - - -;
#X obj 426 9 pack f 200;
#X obj 267 207 +~;
#X obj 426 111 osc~;
#X obj 426 -58 * 2;
#X msg 767 43 0;
#X text 337 -107 <- fundamental freq.;
#X text 820 41 <- phase synchronize;
#X obj 552 51 line~;
#X floatatom 552 -23 5 0 0 0 - - -;
#X obj 552 9 pack f 200;
#X obj 552 111 osc~;
#X obj 552 -58 * 3;
#X text 638 -58 <- harmonics;
#X obj 266 355 *~ 0.2;
#X obj 756 465 tabwrite~ array_add1;
#X text 38 -138 additive synthesis;
#X text 334 204 <- when you connect two signals to the same inlet addition
happens automatically;
#X obj 268 155 *~ 1;
#X obj 426 153 *~ 0.7;
#X obj 552 152 *~ 0.5;
#X obj 78 578 pddp/pddplink https://github.com/risd-cs/codedrop-pd-dmi
;
#X connect 1 0 27 0;
#X connect 2 0 1 0;
#X connect 3 0 30 0;
#X connect 5 0 4 0;
#X connect 7 0 3 0;
#X connect 8 0 9 0;
#X connect 8 0 16 0;
#X connect 8 0 24 0;
#X connect 9 0 7 0;
#X connect 11 0 15 0;
#X connect 12 0 13 0;
#X connect 13 0 11 0;
#X connect 14 0 26 0;
#X connect 15 0 31 0;
#X connect 16 0 12 0;
#X connect 17 0 3 1;
#X connect 17 0 15 1;
#X connect 17 0 23 1;
#X connect 20 0 23 0;
#X connect 21 0 22 0;
#X connect 22 0 20 0;
#X connect 23 0 32 0;
#X connect 24 0 21 0;
#X connect 26 0 6 0;
#X connect 26 0 6 1;
#X connect 26 0 27 0;
#X connect 30 0 14 0;
#X connect 31 0 14 1;
#X connect 32 0 14 1;
