#N canvas 61 53 1582 904 24;
#X obj 123 191 osc~;
#X msg 247 555 \; pd dsp \$1;
#X obj 247 477 tgl 30 0 empty empty empty 17 7 0 10 -262144 -1 -1 0
1;
#X obj 122 389 dac~;
#X obj 124 7 line~;
#X floatatom 124 -81 5 0 0 0 - - -;
#X obj 124 -49 pack f 200;
#X obj 350 7 line~;
#X floatatom 350 -81 5 0 0 0 - - -;
#X obj 350 -49 pack f 200;
#N canvas 0 22 450 300 (subpatch) 0;
#X array array_fm 100 float 0;
#X coords 0 1 99 -1 200 140 1;
#X restore 408 312 graph;
#X obj 412 201 metro 100;
#X obj 412 158 tgl 30 0 empty empty empty 17 7 0 10 -262144 -1 -1 0
1;
#X text 452 157 <- graph;
#X obj 350 67 osc~;
#X msg 752 0 1;
#X msg 798 0 2;
#X msg 844 -1 4;
#X msg 892 -1 8;
#X msg 940 -1 16;
#X floatatom 877 -118 5 0 0 0 - - -;
#X msg 902 102 32;
#X msg 951 102 50;
#X msg 1001 102 100;
#X msg 1051 102 150;
#X msg 1100 102 200;
#X msg 1151 102 250;
#X msg 1201 102 500;
#X floatatom 1099 -131 5 0 0 0 - - -;
#X text 89 -176 frequency modulation and vibrato;
#X obj 123 158 +~;
#X obj 350 100 *~;
#X obj 484 52 line~;
#X msg 484 19 \$1 40;
#X obj 412 234 tabwrite~ array_fm;
#X obj 124 -114 r carrier_freq-fm;
#X obj 350 -114 r mod_freq-fm;
#X obj 484 -49 r mod_index-fm;
#X obj 877 -86 s carrier_freq-fm;
#X obj 1099 -75 s mod_index-fm;
#X obj 752 180 s mod_freq-fm;
#X text 993 0 <- vibrato;
#X obj 92 646 pddp/pddplink https://github.com/risd-cs/codedrop-pd-dmi
;
#X floatatom 484 -15 5 0 0 0 - - -;
#X obj 122 311 *~ 0.3;
#X text 797 298 In the simple FM modulation technique \, a carrier
oscillator is modulated in frequency by a modulator oscillator.;
#X connect 0 0 34 0;
#X connect 0 0 44 0;
#X connect 2 0 1 0;
#X connect 4 0 30 0;
#X connect 5 0 6 0;
#X connect 6 0 4 0;
#X connect 7 0 14 0;
#X connect 8 0 9 0;
#X connect 9 0 7 0;
#X connect 11 0 34 0;
#X connect 12 0 11 0;
#X connect 14 0 31 0;
#X connect 15 0 40 0;
#X connect 16 0 40 0;
#X connect 17 0 40 0;
#X connect 18 0 40 0;
#X connect 19 0 40 0;
#X connect 20 0 38 0;
#X connect 21 0 40 0;
#X connect 22 0 40 0;
#X connect 23 0 40 0;
#X connect 24 0 40 0;
#X connect 25 0 40 0;
#X connect 26 0 40 0;
#X connect 27 0 40 0;
#X connect 28 0 39 0;
#X connect 30 0 0 0;
#X connect 31 0 30 1;
#X connect 32 0 31 1;
#X connect 33 0 32 0;
#X connect 35 0 5 0;
#X connect 36 0 8 0;
#X connect 37 0 43 0;
#X connect 43 0 33 0;
#X connect 44 0 3 0;
#X connect 44 0 3 1;
