#N canvas 175 41 1560 865 24;
#N canvas 0 22 450 300 (subpatch) 0;
#X array waveform_array2 2051 float 0;
#X coords 0 1 2050 -1 200 140 1;
#X restore 334 -111 graph;
#X msg 324 517 \; pd dsp \$1;
#X obj 324 469 tgl 30 0 empty empty empty 17 7 0 10 -262144 -1 -1 1
1;
#X obj 103 484 dac~;
#N canvas 0 22 771 392 vol 0;
#X obj 110 220 outlet~;
#X obj 109 36 inlet~;
#X obj 180 36 inlet;
#X obj 110 167 *~;
#X obj 137 133 line~;
#X msg 137 101 \$1 100;
#X connect 1 0 3 0;
#X connect 2 0 5 0;
#X connect 3 0 0 0;
#X connect 4 0 3 1;
#X connect 5 0 4 0;
#X restore 103 406 pd vol;
#X floatatom 166 373 5 0 1 0 - - -;
#X obj 169 325 hsl 128 30 0 1 0 0 empty empty empty -2 -8 0 10 -262144
-1 -1 6500 1;
#X text 312 329 volume;
#X obj 52 -114 hsl 128 30 0 1 0 0 empty empty empty -2 -8 0 10 -262144
-1 -1 2900 1;
#X text 186 -108 frequency;
#X obj 49 59 phasor~;
#X obj 49 93 *~ 2051;
#X floatatom 49 -73 5 0 0 0 - - -;
#X floatatom 156 -36 5 0 0 0 - - -;
#X obj 49 -4 pack f 200;
#X obj 49 27 sig~;
#X obj 49 -36 * 2000;
#X text 1159 -68 <- saw wave (12 harmonics);
#X text 56 -150 adding Envelopes (ADSR);
#X msg 545 -111 \; waveform_array2 sinesum 2051 1 0.5 0.333333 0.25
0.2 0.166667 0.142857 0.125 0.111111 0.1 0.090909 0.083333 0.076923
\; waveform_array2 normalize 1 \;;
#X obj 49 129 tabread4~ waveform_array2;
#X text 772 357 ADSR = Attack Decay Sustain Release;
#X text 772 372 Attack = time to reach loudest point;
#X text 772 388 Decay = time to reach sustain volume;
#X text 772 404 Sustain = volume of note till released;
#X text 772 420 Release = time to zero after note is released;
#X obj 103 346 *~;
#N canvas 144 31 650 375 (subpatch) 0;
#X array adsr_envelope 8 float 1;
#A 0 0 1 0.2 0.2 0.2 0.2 0 0;
#X coords 0 1 7 0 200 140 1;
#X restore 545 299 graph;
#X obj 133 227 line~;
#X obj 133 262 tabread4~ adsr_envelope;
#X msg 133 185 0 \, 7 1000;
#X msg 247 185 0 \, 7 4000;
#X msg 776 160 \; adsr_envelope 1 0 0.9 0.4 0.2 0 0 0 \;;
#X msg 776 102 \; adsr_envelope 1 0 1 0 0 0 0 0 \;;
#X msg 776 219 \; adsr_envelope 1 0 0.9 0.5 0.5 0.5 0 0 \;;
#X obj 72 626 pddp/pddplink https://github.com/risd-cs/codedrop-pd-dmi
;
#X msg 775 276 \; adsr_envelope 0 0 1 0.2 0.2 0.2 0.2 0 \;;
#X msg 363 186 0 \, 7 400;
#X connect 2 0 1 0;
#X connect 4 0 3 0;
#X connect 4 0 3 1;
#X connect 5 0 4 1;
#X connect 6 0 5 0;
#X connect 8 0 12 0;
#X connect 10 0 11 0;
#X connect 11 0 20 0;
#X connect 12 0 16 0;
#X connect 13 0 14 1;
#X connect 14 0 15 0;
#X connect 15 0 10 0;
#X connect 16 0 14 0;
#X connect 20 0 26 0;
#X connect 26 0 4 0;
#X connect 28 0 29 0;
#X connect 29 0 26 1;
#X connect 30 0 28 0;
#X connect 31 0 28 0;
#X connect 37 0 28 0;
