#N canvas 355 42 1638 883 24;
#X msg 10 292 \; pd dsp \$1;
#X obj 10 244 tgl 30 0 empty empty empty 17 7 0 10 -262144 -1 -1 1
1;
#X obj 132 393 dac~;
#N canvas 0 22 771 392 vol 0;
#X obj 110 220 outlet~;
#X obj 109 36 inlet~;
#X obj 180 36 inlet;
#X obj 110 167 *~;
#X obj 137 133 line~;
#X msg 137 101 \$1 100;
#X connect 1 0 3 0;
#X connect 2 0 5 0;
#X connect 3 0 0 0;
#X connect 4 0 3 1;
#X connect 5 0 4 0;
#X restore 132 315 pd vol;
#X floatatom 195 281 5 0 1 0 - - -;
#X obj 198 239 hsl 128 30 0 1 0 0 empty empty gain -2 -8 0 10 -262144
-1 -1 5400 1;
#X obj 132 157 *~;
#X msg 627 113 \; adsr_envelope 1 0 0.9 0.4 0.2 0 0 0 \;;
#X msg 1076 170 \; adsr_envelope 1 0 0.3 0.5 0.7 0.9 0 0 \;;
#X obj 66 455 pddp/pddplink https://github.com/risd-cs/codedrop-pd-dmi
;
#X obj 107 -239 MouseState;
#X floatatom 133 -135 5 0 0 1 carrier_freq - -;
#X floatatom 333 -135 5 0 0 1 mod_freq - -;
#X msg 107 -290 poll;
#X msg 185 -289 nopoll;
#X obj 133 -182 * 0.5;
#X obj 333 -182 * 0.5;
#N canvas 867 43 623 434 ADSR 0;
#X obj 146 188 line~;
#X obj 146 218 tabread4~ adsr_envelope;
#X obj 146 157 inlet;
#X obj 146 249 outlet~;
#X connect 0 0 1 0;
#X connect 1 0 3 0;
#X connect 2 0 0 0;
#X restore 1338 7 pd ADSR;
#X floatatom 515 -267 5 0 0 0 - - -;
#X obj 515 -229 / 127;
#X obj 515 -164 * 1000;
#X obj 515 -306 ctlin 1;
#X obj 1338 -306 notein 1;
#X obj 1338 -172 change;
#X floatatom 1338 -135 5 0 0 0 - - -;
#X obj 1338 -100 select 64;
#X msg 1458 -34 1 127 1;
#X obj 1458 7 noteout;
#X msg 1550 -34 1 0 1;
#X msg 1050 113 \; adsr_envelope 1 1 1 1 0.9 0.8 0 0 \;;
#X msg 627 167 \; adsr_envelope 1 0 0.9 0.5 0.5 0.5 0 0 \;;
#X msg 1338 -33 0 \, 7 3000;
#X msg 861 258 \; adsr_envelope 1 0 0 0 0 0 0 0 \;;
#X msg 860 323 \; adsr_envelope 1 0.5 0.5 0.5 0.5 0.5 0.5 0.5 \;;
#N canvas 144 31 1180 739 (subpatch) 0;
#X array adsr_envelope 8 float 1;
#A 0 0 0 0.9 0.4 0.2 0 0 0;
#X coords 0 1 7 0 200 140 1;
#X restore 628 249 graph;
#X floatatom 725 -276 5 0 0 0 - - -;
#X obj 725 -238 / 127;
#X floatatom 725 -204 5 0 0 1 - - -;
#X obj 725 -307 ctlin 3;
#X floatatom 871 -135 5 0 0 1 mod_index - -;
#X obj 1338 -269 pack f f;
#X obj 1338 -236 route 1;
#X floatatom 1338 -204 5 0 0 0 - - -;
#X obj 725 -170 * 8;
#X floatatom 725 -135 5 0 0 1 mod_freq - -;
#X floatatom 1077 -275 5 0 0 0 - - -;
#X obj 1077 -237 / 127;
#X floatatom 1077 -134 5 0 0 1 feedback_index - -;
#X obj 1077 -308 ctlin 5;
#X obj 871 -198 loadbang;
#X msg 871 -167 1;
#X obj 159 0 delwrite~ fb 1000;
#X obj 1146 -70 delread~ fb 1000;
#X msg 1077 -101 \$1 200;
#X obj 1077 -69 line~;
#X obj 1077 -36 *~;
#X obj 132 195 clip~ -1 1;
#X obj 1077 -204 * 10;
#X floatatom 516 -134 5 0 0 1 mod_index - -;
#X floatatom 515 -194 5 0 0 0 - - -;
#X obj 673 -309 cnv 15 50 200 empty empty empty 20 12 0 14 -261234
-66577 0;
#X obj 1024 -309 cnv 15 50 200 empty empty empty 20 12 0 14 -261234
-66577 0;
#X obj 52 -309 cnv 15 50 200 empty empty empty 20 12 0 14 -261234 -66577
0;
#N canvas 909 22 796 574 FMsynth____________________ 0;
#X obj 115 337 osc~;
#X obj 116 145 line~;
#X floatatom 116 51 5 0 0 0 - - -;
#X obj 237 133 line~;
#X floatatom 237 51 5 0 0 0 - - -;
#X obj 237 174 osc~;
#X obj 115 296 +~;
#X obj 237 266 *~;
#X obj 449 240 line~;
#X msg 449 208 \$1 40;
#X floatatom 449 175 5 0 0 0 - - -;
#X text 114 25 carrier;
#X text 235 25 modulation;
#X text 444 149 index;
#X obj 85 -12 inlet;
#X obj 209 -13 inlet;
#X obj 345 -8 inlet;
#X obj 115 384 outlet~;
#X msg 122 94 \$1 200;
#X msg 240 89 \$1 200;
#X obj 644 9 inlet~;
#X obj 237 218 *~;
#X connect 0 0 17 0;
#X connect 1 0 6 0;
#X connect 2 0 18 0;
#X connect 3 0 5 0;
#X connect 4 0 19 0;
#X connect 5 0 21 0;
#X connect 6 0 0 0;
#X connect 7 0 6 1;
#X connect 8 0 7 1;
#X connect 9 0 8 0;
#X connect 10 0 9 0;
#X connect 14 0 2 0;
#X connect 15 0 4 0;
#X connect 16 0 10 0;
#X connect 18 0 1 0;
#X connect 19 0 3 0;
#X connect 20 0 21 1;
#X connect 21 0 7 0;
#X restore 133 -49 pd FMsynth____________________;
#N canvas 751 180 890 666 AM_LFO____________________ 0;
#X obj 322 169 line~;
#X obj 96 337 *~;
#X obj 322 241 osc~;
#X obj 96 200 inlet~;
#X obj 96 425 outlet~;
#X msg 322 124 \$1 200;
#X obj 431 168 line~;
#X msg 431 124 \$1 200;
#X obj 322 284 *~;
#X obj 322 79 inlet;
#X obj 431 33 inlet;
#X obj 431 73 clip 0 1;
#X connect 0 0 2 0;
#X connect 1 0 4 0;
#X connect 2 0 8 0;
#X connect 3 0 1 0;
#X connect 5 0 0 0;
#X connect 6 0 8 1;
#X connect 7 0 6 0;
#X connect 8 0 1 1;
#X connect 9 0 5 0;
#X connect 10 0 11 0;
#X connect 11 0 7 0;
#X restore 132 111 pd AM_LFO____________________;
#X obj 1282 -309 cnv 15 50 200 empty empty empty 20 12 0 14 -261234
-66577 0;
#X text 1117 -345 FM mod feedback;
#X text 192 -345 simple FM synth;
#X text 821 -345 LFO;
#X text 1345 -345 ADSR;
#X obj 1077 -170 + 0.1;
#X connect 1 0 0 0;
#X connect 3 0 2 0;
#X connect 3 0 2 1;
#X connect 4 0 3 1;
#X connect 5 0 4 0;
#X connect 6 0 56 0;
#X connect 10 1 15 0;
#X connect 10 2 16 0;
#X connect 11 0 63 0;
#X connect 12 0 63 1;
#X connect 13 0 10 0;
#X connect 14 0 10 0;
#X connect 15 0 11 0;
#X connect 16 0 12 0;
#X connect 17 0 6 1;
#X connect 18 0 19 0;
#X connect 19 0 59 0;
#X connect 20 0 58 0;
#X connect 21 0 18 0;
#X connect 22 0 40 0;
#X connect 22 1 40 1;
#X connect 23 0 24 0;
#X connect 24 0 25 0;
#X connect 25 0 31 0;
#X connect 25 0 26 0;
#X connect 25 1 28 0;
#X connect 26 0 27 0;
#X connect 28 0 27 0;
#X connect 31 0 17 0;
#X connect 35 0 36 0;
#X connect 36 0 37 0;
#X connect 37 0 43 0;
#X connect 38 0 35 0;
#X connect 39 0 64 2;
#X connect 40 0 41 0;
#X connect 41 0 42 0;
#X connect 42 0 23 0;
#X connect 43 0 44 0;
#X connect 44 0 64 1;
#X connect 45 0 46 0;
#X connect 46 0 57 0;
#X connect 47 0 53 0;
#X connect 48 0 45 0;
#X connect 49 0 50 0;
#X connect 50 0 39 0;
#X connect 52 0 55 1;
#X connect 53 0 54 0;
#X connect 54 0 55 0;
#X connect 55 0 63 3;
#X connect 56 0 3 0;
#X connect 57 0 70 0;
#X connect 58 0 63 2;
#X connect 59 0 20 0;
#X connect 63 0 64 0;
#X connect 63 0 51 0;
#X connect 64 0 6 0;
#X connect 70 0 47 0;
