#N canvas 27 22 1620 975 24;
#X msg 249 454 \; pd dsp \$1;
#X obj 249 406 tgl 30 0 empty empty empty 17 7 0 10 -262144 -1 -1 0
1;
#X obj 407 476 dac~;
#N canvas 0 22 771 392 vol 0;
#X obj 110 220 outlet~;
#X obj 109 36 inlet~;
#X obj 180 36 inlet;
#X obj 110 167 *~;
#X obj 137 133 line~;
#X msg 137 101 \$1 100;
#X connect 1 0 3 0;
#X connect 2 0 5 0;
#X connect 3 0 0 0;
#X connect 4 0 3 1;
#X connect 5 0 4 0;
#X restore 407 398 pd vol;
#X floatatom 470 364 5 0 1 0 - - -;
#X obj 473 322 hsl 128 30 0 1 0 0 empty empty empty -2 -8 0 10 -262144
-1 -1 0 1;
#X text 606 325 volume;
#X obj 407 323 *~;
#N canvas 144 31 1180 739 (subpatch) 0;
#X array adsr_envelope 8 float 1;
#A 0 0 0 0.3 0.5 0.7 0.9 0 0;
#X coords 0 1 7 0 200 140 1;
#X restore 873 320 graph;
#X obj 565 170 line~;
#X obj 565 200 tabread4~ adsr_envelope;
#X obj 133 253 osc~;
#X obj 134 61 line~;
#X floatatom 134 -33 5 0 0 0 - - -;
#X obj 360 49 line~;
#X floatatom 360 -33 5 0 0 0 - - -;
#X obj 360 121 osc~;
#X obj 133 212 +~;
#X obj 360 164 *~;
#X obj 495 46 line~;
#X msg 495 0 \$1 40;
#X floatatom 495 -33 5 0 0 0 - - -;
#X msg 872 128 \; adsr_envelope 1 0 0.9 0.4 0.2 0 0 0 \;;
#X msg 872 74 \; adsr_envelope 1 0 1 0 0 0 0 0 \;;
#X msg 565 126 0 \, 7 200;
#X msg 872 182 \; adsr_envelope 1 0 0.9 0.5 0.5 0.5 0 0 \;;
#X text 132 -59 carrier;
#X text 358 -59 modulation;
#X text 490 -59 index;
#X msg 872 237 \; adsr_envelope 1 0 0.3 0.5 0.7 0.9 0 0 \;;
#X obj 923 533 pddp/pddplink https://github.com/risd-cs/codedrop-pd-dmi
;
#X obj 114 -261 MouseState;
#X floatatom 134 -161 5 0 0 0 - - -;
#X floatatom 216 -161 5 0 0 0 - - -;
#X msg 114 -333 poll;
#X msg 192 -332 nopoll;
#X obj 672 -157 tgl 30 0 empty empty empty 17 7 0 10 -262144 -1 -1
0 1;
#X msg 672 126 0 \, 7 4000;
#X obj 134 -116 * 0.5;
#X obj 216 -116 * 0.5;
#X obj 672 -69 select 1;
#X msg 134 11 \$1 200;
#X msg 360 10 \$1 200;
#X connect 1 0 0 0;
#X connect 3 0 2 0;
#X connect 3 0 2 1;
#X connect 4 0 3 1;
#X connect 5 0 4 0;
#X connect 7 0 3 0;
#X connect 9 0 10 0;
#X connect 10 0 7 1;
#X connect 11 0 7 0;
#X connect 12 0 17 0;
#X connect 13 0 41 0;
#X connect 14 0 16 0;
#X connect 15 0 42 0;
#X connect 16 0 18 0;
#X connect 17 0 11 0;
#X connect 18 0 17 1;
#X connect 19 0 18 1;
#X connect 20 0 19 0;
#X connect 21 0 20 0;
#X connect 24 0 9 0;
#X connect 31 0 36 0;
#X connect 31 1 32 0;
#X connect 31 2 33 0;
#X connect 32 0 38 0;
#X connect 33 0 39 0;
#X connect 34 0 31 0;
#X connect 35 0 31 0;
#X connect 36 0 40 0;
#X connect 37 0 9 0;
#X connect 38 0 13 0;
#X connect 39 0 15 0;
#X connect 40 0 37 0;
#X connect 41 0 12 0;
#X connect 42 0 14 0;
